#!OML:ASF E:\Steps\Project 1\Capture day 1\Session 2\Subject.ASF
:FULLY-SPECIFIED
:DEGREES
415
root 3.85242 17.1499 16.6993 -155.554 -3.66556 178.507
lowerback -27.3682 -1.44181 -4.28101
upperback -1.67946 -1.16761 0.245269
thorax 13.4832 -1.0374 2.25494
lowerneck -0.878056 -3.36231 -0.216775
upperneck 1.75757 -4.47615 -1.21908
head 0.652639 -2.25551 -0.370412
rclavicle 7.91411e-015 -2.5842e-015
rhumerus -33.9767 -17.1426 -78.8413
rradius 33.7749
rwrist -2.08242
rhand -8.11574 -54.9709
rfingers 7.12502
rthumb 17.7975 275.824
lclavicle 7.91411e-015 -2.5842e-015
lhumerus -31.2321 -3.57791 84.1966
lradius 26.6968
lwrist -2.10086
lhand -20.6431 -12.3843
lfingers 7.12502
lthumb 5.71898 17.5185
rfemur -24.1958 4.94367 20.998
rtibia 8.58363
rfoot -17.7014 1.7192
rtoes -0.921115
lfemur -25.0328 -7.37726 -22.1383
ltibia 11.0388
lfoot -8.42356 -1.8546
ltoes -39.7809
416
root 3.85182 17.1481 16.6948 -155.575 -3.76203 178.499
lowerback -28.4748 -1.56615 -4.58391
upperback -0.674386 -1.12361 0.465498
thorax 14.4596 -1.033 2.52772
lowerneck -1.29072 -3.60134 -0.00106856
upperneck 1.45572 -4.79446 -1.4956
head 0.61528 -2.41521 -0.496022
rclavicle 2.17421e-016 6.83322e-015
rhumerus -32.8383 -17.615 -78.8127
rradius 33.5359
rwrist -1.7948
rhand -8.15617 -54.8201
rfingers 7.12502
rthumb 17.7586 275.971
lclavicle 2.17421e-016 6.83322e-015
lhumerus -29.8576 -3.33153 84.2673
lradius 26.4299
lwrist -2.10923
lhand -20.3987 -12.7275
lfingers 7.12502
lthumb 5.95494 17.1688
rfemur -24.1489 4.90028 21.0093
rtibia 8.57288
rfoot -17.7052 1.71498
rtoes -0.357569
lfemur -24.9503 -7.31597 -22.1563
ltibia 10.9562
lfoot -8.45808 -2.03309
ltoes -39.9306
417
root 3.85187 17.1451 16.6914 -155.537 -3.75107 178.482
lowerback -28.3004 -1.55086 -4.65368
upperback -0.942159 -1.12237 0.416703
thorax 14.0656 -1.03773 2.51427
lowerneck -1.58257 -3.8187 0.588928
upperneck 2.29449 -5.08246 -2.16994
head 0.890897 -2.57067 -0.822283
rclavicle -1.32565e-014 8.64713e-015
rhumerus -33.2258 -17.7028 -78.7263
rradius 33.4731
rwrist -1.57447
rhand -7.98349 -54.4435
rfingers 7.12502
rthumb 17.9247 276.363
lclavicle -1.32565e-014 8.64713e-015
lhumerus -29.9996 -2.97881 84.0228
lradius 26.3339
lwrist -2.40316
lhand -20.3003 -13.1967
lfingers 7.12502
lthumb 6.04987 16.6969
rfemur -24.2515 4.95778 20.9782
rtibia 8.67202
rfoot -17.605 1.71926
rtoes -0.497551
lfemur -24.9359 -7.2153 -22.2078
ltibia 10.8956
lfoot -8.58296 -2.14875
ltoes -40.3201
418
root 3.85186 17.1428 16.6854 -155.546 -3.80246 178.499
lowerback -28.1749 -1.60078 -4.73488
upperback -1.15005 -1.20576 0.464636
thorax 13.7755 -1.08371 2.57968
lowerneck -1.44127 -3.61577 0.173514
upperneck 1.88014 -4.81024 -1.92498
head 0.757329 -2.43132 -0.665648
rclavicle -6.6655e-015 -1.2424e-015
rhumerus -33.4247 -17.5548 -78.6063
rradius 33.3399
rwrist -1.50306
rhand -7.81769 -54.4317
rfingers 7.12502
rthumb 18.0843 276.389
lclavicle -6.6655e-015 -1.2424e-015
lhumerus -30.1403 -2.45178 83.8894
lradius 26.254
lwrist -2.97539
lhand -20.4929 -12.7381
lfingers 7.12502
lthumb 5.86392 17.1607
rfemur -24.2992 5.01834 21.0075
rtibia 8.86018
rfoot -17.819 1.55983
rtoes -1.06133
lfemur -24.8656 -7.21829 -22.1899
ltibia 10.8527
lfoot -8.5995 -2.16304
ltoes -40.1619
419
root 3.8518 17.1424 16.6799 -155.561 -3.90095 178.565
lowerback -27.7502 -1.61384 -4.76247
upperback -1.89115 -1.29839 0.440126
thorax 13.4612 -1.14747 2.70211
lowerneck -0.817215 -3.16681 -0.77676
upperneck 0.926957 -4.2168 -1.09713
head 0.403792 -2.12265 -0.229585
rclavicle 9.9206e-015 1.45113e-014
rhumerus -33.9114 -17.1937 -78.4333
rradius 33.2156
rwrist -1.64303
rhand -7.74338 -54.5181
rfingers 7.12502
rthumb 18.1557 276.309
lclavicle 9.9206e-015 1.45113e-014
lhumerus -30.7227 -2.25275 83.8363
lradius 26.4
lwrist -3.16412
lhand -20.5617 -11.9915
lfingers 7.12502
lthumb 5.79751 17.9092
rfemur -24.2921 5.09173 21.0956
rtibia 8.98034
rfoot -18.1251 1.36041
rtoes -0.82522
lfemur -24.8184 -7.17194 -22.1114
ltibia 10.8318
lfoot -8.5489 -2.16058
ltoes -40.3744
